<?xml version="1.0" encoding="utf-8"?>
<!-- Generator: Adobe Illustrator 15.1.0, SVG Export Plug-In . SVG Version: 6.00 Build 0)  -->
<!DOCTYPE svg PUBLIC "-//W3C//DTD SVG 1.1//EN" "http://www.w3.org/Graphics/SVG/1.1/DTD/svg11.dtd">
<svg version="1.1" id="圖層_1" xmlns="http://www.w3.org/2000/svg" xmlns:xlink="http://www.w3.org/1999/xlink" x="0px" y="0px"
	 width="1300px" height="200px" viewBox="0 0 1300 200" enable-background="new 0 0 1300 200" xml:space="preserve">
<path fill="#2A2422" stroke="#2A2422" stroke-miterlimit="10" d="M213.559,106.642c0.978,5.45-2.521,10.688-7.814,11.695
	L33.221,151.15c-5.293,1.009-10.377-2.594-11.354-8.044L4.164,44.393c-0.978-5.451,2.521-10.688,7.815-11.699L184.501,2.67
	c5.294-1.011,10.377,2.592,11.355,8.049L213.559,106.642z"/>
<path fill="#2A2422" stroke="#2A2422" stroke-miterlimit="10" d="M310.175,156.11c6.26,1.94,4.338,7.118-0.958,8.128
	l-163.041,32.815c-5.293,1.008-14.661,0.252-20.922-1.687l-91.713-39.284c-6.26-1.935-7.047-4.325-1.752-5.333l172.523-32.814
	c5.297-1.01,14.663-0.255,20.924,1.683L310.175,156.11z"/>
<path fill="#FFFFFF" stroke="#000000" stroke-miterlimit="10" d="M203.963,103.128c0.886,4.938-2.283,9.68-7.077,10.589
	L40.629,143.443c-4.794,0.911-9.398-2.354-10.284-7.292L14.312,46.749c-0.886-4.938,2.283-9.685,7.079-10.597L177.645,8.956
	c4.796-0.908,9.4,2.356,10.285,7.292L203.963,103.128z"/>
<g>
	<path fill="#2A2422" d="M90.761,103.896c0.194,1.325-0.082,2.468-0.828,3.43c-0.747,0.965-1.764,1.545-3.049,1.745
		c-0.901,0.14-1.729,0.101-2.484-0.122L46.316,98.817c-1.438-0.387-2.627-1.098-3.569-2.137S41.224,94.361,41,92.837
		c-0.213-1.456-0.022-2.841,0.575-4.153s1.532-2.337,2.805-3.077l33.466-21.358c0.787-0.46,1.567-0.751,2.339-0.871
		c1.285-0.2,2.423,0.047,3.413,0.738c0.99,0.694,1.581,1.702,1.775,3.026c0.252,1.723-0.373,3.073-1.872,4.051L51.609,91.188
		l36.202,9.407C89.524,101.074,90.509,102.174,90.761,103.896z"/>
	<path fill="#2A2422" d="M105.189,118.212c-0.749,0.727-1.638,1.169-2.666,1.329c-1.287,0.2-2.494-0.07-3.62-0.81
		c-1.127-0.738-1.794-1.803-1.998-3.194c-0.087-0.596-0.078-1.206,0.028-1.833l11.79-75.693c0.201-1.316,0.675-2.34,1.424-3.067
		c0.748-0.725,1.637-1.168,2.667-1.328c1.285-0.2,2.492,0.07,3.62,0.809c1.127,0.739,1.793,1.804,1.998,3.195
		c0.087,0.595,0.078,1.206-0.027,1.832l-11.79,75.694C106.413,116.462,105.938,117.486,105.189,118.212z"/>
	<path fill="#2A2422" d="M174.382,68.033c0.947,1.072,1.526,2.337,1.74,3.793c0.224,1.524,0.035,2.925-0.567,4.204
		c-0.602,1.279-1.534,2.319-2.797,3.126l-33.481,21.259c-0.66,0.443-1.439,0.732-2.338,0.872c-1.287,0.2-2.423-0.046-3.414-0.74
		c-0.989-0.691-1.581-1.699-1.775-3.024c-0.252-1.722,0.372-3.071,1.873-4.051l31.891-19.995l-36.201-9.407
		c-1.714-0.478-2.698-1.578-2.95-3.301c-0.194-1.324,0.083-2.467,0.829-3.432c0.747-0.962,1.762-1.543,3.049-1.743
		c0.771-0.12,1.599-0.079,2.484,0.121l38.098,10.23C172.249,66.266,173.436,66.961,174.382,68.033z"/>
</g>
<path fill="#FFFFFF" stroke="#000000" stroke-miterlimit="10" d="M268.151,142.367c3.938,1.044-0.32,4.616-5.048,5.519
	l-146.554,28.907c-4.727,0.896-11.753,0.78-15.691-0.272l-51.943-22.686c-3.94-1.043-3.3-2.625,1.427-3.522l154.069-29.3
	c4.73-0.9,11.756-0.779,15.695,0.264L268.151,142.367z"/>
<g>
	<path fill="#6A3906" d="M337.978,173.493c-3.789,4.461-10.37,4.908-14.7,1.013l-81.067-73.046c-4.33-3.9-4.769-10.681-0.981-15.136
		l0,0c3.79-4.463,10.37-4.912,14.7-1.014l81.066,73.045C341.326,162.255,341.766,169.032,337.978,173.493L337.978,173.493z"/>
	<path fill="#CA411B" d="M239.24,130.805c-4.927,5.801-13.485,6.39-19.117,1.313l-20.161-18.163
		c-5.631-5.077-6.202-13.891-1.275-19.689l46.021-54.173c4.926-5.805,13.485-6.395,19.116-1.314l20.161,18.16
		c5.631,5.073,6.202,13.89,1.276,19.693L239.24,130.805z"/>
</g>
<g>
	<path fill="#2A2422" d="M408.685,17.668c1.5,1.334,2.25,3.084,2.25,5.25v74.75c0,2.25-0.709,4.043-2.125,5.375
		c-1.418,1.334-3.293,2-5.625,2c-2.334,0-4.209-0.666-5.625-2c-1.418-1.332-2.125-3.125-2.125-5.375v-3.125
		c-1.834,3.418-4.48,6.084-7.938,8c-3.459,1.916-7.396,2.875-11.813,2.875c-5.25,0-9.938-1.332-14.063-4
		c-4.125-2.666-7.334-6.438-9.625-11.313c-2.293-4.875-3.438-10.479-3.438-16.813c0-6.332,1.145-11.875,3.438-16.625
		c2.291-4.75,5.479-8.416,9.563-11c4.082-2.582,8.791-3.875,14.125-3.875c4.416,0,8.332,0.918,11.75,2.75
		c3.416,1.834,6.041,4.418,7.875,7.75V22.668c0-2.082,0.688-3.77,2.063-5.063c1.375-1.291,3.229-1.938,5.563-1.938
		C405.267,15.668,407.185,16.336,408.685,17.668z M391.373,88.168c2.707-3.416,4.063-8.291,4.063-14.625
		c0-6.332-1.355-11.188-4.063-14.563c-2.709-3.375-6.521-5.063-11.438-5.063c-5,0-8.875,1.668-11.625,5
		c-2.75,3.334-4.125,8.125-4.125,14.375c0,6.334,1.375,11.25,4.125,14.75s6.582,5.25,11.5,5.25
		C384.81,93.293,388.664,91.586,391.373,88.168z"/>
	<path fill="#2A2422" d="M472.497,48.105c4.125,4.209,6.188,10.605,6.188,19.188v30.5c0,2.25-0.668,4.021-2,5.313
		c-1.334,1.293-3.168,1.938-5.5,1.938c-2.168,0-3.938-0.666-5.313-2c-1.375-1.332-2.063-3.082-2.063-5.25v-2.75
		c-1.418,3.25-3.646,5.793-6.688,7.625c-3.043,1.832-6.563,2.75-10.563,2.75c-4.084,0-7.793-0.834-11.125-2.5
		c-3.334-1.666-5.959-3.957-7.875-6.875c-1.918-2.916-2.875-6.166-2.875-9.75c0-4.5,1.145-8.041,3.438-10.625
		c2.291-2.582,6.02-4.457,11.188-5.625c5.166-1.166,12.291-1.75,21.375-1.75h3.125v-2.875c0-4.082-0.875-7.063-2.625-8.938
		s-4.584-2.813-8.5-2.813c-2.418,0-4.875,0.355-7.375,1.063c-2.5,0.709-5.459,1.73-8.875,3.063c-2.168,1.084-3.75,1.625-4.75,1.625
		c-1.5,0-2.73-0.541-3.688-1.625c-0.959-1.082-1.438-2.5-1.438-4.25c0-1.416,0.354-2.645,1.063-3.688
		c0.707-1.041,1.895-2.02,3.563-2.938c2.916-1.582,6.395-2.832,10.438-3.75c4.041-0.916,8.02-1.375,11.938-1.375
		C462.06,41.793,468.372,43.898,472.497,48.105z M459.872,89.98c2.625-2.791,3.938-6.395,3.938-10.813v-2.625h-2.25
		c-5.584,0-9.918,0.25-13,0.75c-3.084,0.5-5.293,1.375-6.625,2.625c-1.334,1.25-2,2.959-2,5.125c0,2.668,0.938,4.855,2.813,6.563
		c1.875,1.709,4.188,2.563,6.938,2.563C453.851,94.168,457.247,92.773,459.872,89.98z"/>
	<path fill="#2A2422" d="M539.871,43.23c1.125-0.707,2.354-1.063,3.688-1.063c1.916,0,3.645,0.646,5.188,1.938
		c1.541,1.293,2.313,2.896,2.313,4.813c0,0.918-0.25,1.875-0.75,2.875l-34.125,71.5c-1.418,2.832-3.625,4.25-6.625,4.25
		c-1.918,0-3.605-0.605-5.063-1.813c-1.459-1.209-2.188-2.73-2.188-4.563c0-0.918,0.25-1.959,0.75-3.125l8.5-17.875l-23.25-48.375
		c-0.418-0.832-0.625-1.791-0.625-2.875c0-1.916,0.813-3.541,2.438-4.875c1.625-1.332,3.479-2,5.563-2
		c1.416,0,2.707,0.355,3.875,1.063c1.166,0.709,2.082,1.813,2.75,3.313l17.5,38.625l17.375-38.5
		C537.85,45.043,538.746,43.939,539.871,43.23z"/>
	<path fill="#2A2422" d="M616.058,17.668c1.5,1.334,2.25,3.084,2.25,5.25v74.75c0,2.25-0.709,4.043-2.125,5.375
		c-1.418,1.334-3.293,2-5.625,2c-2.334,0-4.209-0.666-5.625-2c-1.418-1.332-2.125-3.125-2.125-5.375v-3.125
		c-1.834,3.418-4.48,6.084-7.938,8c-3.459,1.916-7.396,2.875-11.813,2.875c-5.25,0-9.938-1.332-14.063-4
		c-4.125-2.666-7.334-6.438-9.625-11.313c-2.293-4.875-3.438-10.479-3.438-16.813c0-6.332,1.145-11.875,3.438-16.625
		c2.291-4.75,5.479-8.416,9.563-11c4.082-2.582,8.791-3.875,14.125-3.875c4.416,0,8.332,0.918,11.75,2.75
		c3.416,1.834,6.041,4.418,7.875,7.75V22.668c0-2.082,0.688-3.77,2.063-5.063c1.375-1.291,3.229-1.938,5.563-1.938
		C612.64,15.668,614.558,16.336,616.058,17.668z M598.745,88.168c2.707-3.416,4.063-8.291,4.063-14.625
		c0-6.332-1.355-11.188-4.063-14.563c-2.709-3.375-6.521-5.063-11.438-5.063c-5,0-8.875,1.668-11.625,5
		c-2.75,3.334-4.125,8.125-4.125,14.375c0,6.334,1.375,11.25,4.125,14.75s6.582,5.25,11.5,5.25
		C592.183,93.293,596.036,91.586,598.745,88.168z"/>
	<path fill="#2A2422" d="M679.87,48.105c4.125,4.209,6.188,10.605,6.188,19.188v30.5c0,2.25-0.668,4.021-2,5.313
		c-1.334,1.293-3.168,1.938-5.5,1.938c-2.168,0-3.938-0.666-5.313-2c-1.375-1.332-2.063-3.082-2.063-5.25v-2.75
		c-1.418,3.25-3.646,5.793-6.688,7.625c-3.043,1.832-6.563,2.75-10.563,2.75c-4.084,0-7.793-0.834-11.125-2.5
		c-3.334-1.666-5.959-3.957-7.875-6.875c-1.918-2.916-2.875-6.166-2.875-9.75c0-4.5,1.145-8.041,3.438-10.625
		c2.291-2.582,6.02-4.457,11.188-5.625c5.166-1.166,12.291-1.75,21.375-1.75h3.125v-2.875c0-4.082-0.875-7.063-2.625-8.938
		s-4.584-2.813-8.5-2.813c-2.418,0-4.875,0.355-7.375,1.063c-2.5,0.709-5.459,1.73-8.875,3.063c-2.168,1.084-3.75,1.625-4.75,1.625
		c-1.5,0-2.73-0.541-3.688-1.625c-0.959-1.082-1.438-2.5-1.438-4.25c0-1.416,0.354-2.645,1.063-3.688
		c0.707-1.041,1.895-2.02,3.563-2.938c2.916-1.582,6.395-2.832,10.438-3.75c4.041-0.916,8.02-1.375,11.938-1.375
		C669.433,41.793,675.745,43.898,679.87,48.105z M667.245,89.98c2.625-2.791,3.938-6.395,3.938-10.813v-2.625h-2.25
		c-5.584,0-9.918,0.25-13,0.75c-3.084,0.5-5.293,1.375-6.625,2.625c-1.334,1.25-2,2.959-2,5.125c0,2.668,0.938,4.855,2.813,6.563
		c1.875,1.709,4.188,2.563,6.938,2.563C661.224,94.168,664.62,92.773,667.245,89.98z"/>
	<path fill="#2A2422" d="M747.244,43.23c1.125-0.707,2.354-1.063,3.688-1.063c1.916,0,3.645,0.646,5.188,1.938
		c1.541,1.293,2.313,2.896,2.313,4.813c0,0.918-0.25,1.875-0.75,2.875l-34.125,71.5c-1.418,2.832-3.625,4.25-6.625,4.25
		c-1.918,0-3.605-0.605-5.063-1.813c-1.459-1.209-2.188-2.73-2.188-4.563c0-0.918,0.25-1.959,0.75-3.125l8.5-17.875l-23.25-48.375
		c-0.418-0.832-0.625-1.791-0.625-2.875c0-1.916,0.813-3.541,2.438-4.875c1.625-1.332,3.479-2,5.563-2
		c1.416,0,2.707,0.355,3.875,1.063c1.166,0.709,2.082,1.813,2.75,3.313l17.5,38.625l17.375-38.5
		C745.223,45.043,746.119,43.939,747.244,43.23z"/>
	<path fill="#2A2422" d="M777.743,101.543c-4.625-2.582-8.188-6.25-10.688-11s-3.75-10.291-3.75-16.625
		c0-6.332,1.313-11.938,3.938-16.813s6.313-8.645,11.063-11.313c4.75-2.666,10.207-4,16.375-4c3.25,0,6.52,0.459,9.813,1.375
		c3.291,0.918,6.188,2.168,8.688,3.75c2.666,1.75,4,3.959,4,6.625c0,1.834-0.438,3.313-1.313,4.438s-2.021,1.688-3.438,1.688
		c-0.918,0-1.875-0.207-2.875-0.625c-1-0.416-2-0.916-3-1.5c-1.834-1.082-3.584-1.938-5.25-2.563
		c-1.668-0.625-3.584-0.938-5.75-0.938c-5.168,0-9.146,1.688-11.938,5.063c-2.793,3.375-4.188,8.23-4.188,14.563
		c0,6.25,1.395,11.063,4.188,14.438c2.791,3.375,6.77,5.063,11.938,5.063c2.082,0,3.938-0.313,5.563-0.938s3.438-1.479,5.438-2.563
		c1.25-0.75,2.332-1.313,3.25-1.688c0.916-0.375,1.832-0.563,2.75-0.563c1.332,0,2.457,0.584,3.375,1.75
		c0.916,1.168,1.375,2.625,1.375,4.375c0,1.418-0.313,2.646-0.938,3.688c-0.625,1.043-1.646,1.98-3.063,2.813
		c-2.584,1.668-5.584,2.98-9,3.938c-3.418,0.957-6.918,1.438-10.5,1.438C787.722,105.418,782.368,104.127,777.743,101.543z"/>
	<path fill="#2A2422" d="M839.117,101.543c-4.709-2.582-8.355-6.291-10.938-11.125c-2.584-4.832-3.875-10.457-3.875-16.875
		c0-6.416,1.291-12.02,3.875-16.813c2.582-4.791,6.229-8.479,10.938-11.063c4.707-2.582,10.188-3.875,16.438-3.875
		s11.729,1.293,16.438,3.875c4.707,2.584,8.332,6.271,10.875,11.063c2.541,4.793,3.813,10.396,3.813,16.813
		c0,6.418-1.271,12.043-3.813,16.875c-2.543,4.834-6.168,8.543-10.875,11.125c-4.709,2.584-10.188,3.875-16.438,3.875
		S843.824,104.127,839.117,101.543z M867.055,88.293c2.666-3.332,4-8.25,4-14.75c0-6.416-1.334-11.313-4-14.688
		c-2.668-3.375-6.5-5.063-11.5-5.063s-8.855,1.688-11.563,5.063c-2.709,3.375-4.063,8.271-4.063,14.688c0,6.5,1.332,11.418,4,14.75
		c2.666,3.334,6.5,5,11.5,5C860.512,93.293,864.387,91.627,867.055,88.293z"/>
	<path fill="#2A2422" d="M956.304,17.668c1.5,1.334,2.25,3.084,2.25,5.25v74.75c0,2.25-0.709,4.043-2.125,5.375
		c-1.418,1.334-3.293,2-5.625,2c-2.334,0-4.209-0.666-5.625-2c-1.418-1.332-2.125-3.125-2.125-5.375v-3.125
		c-1.834,3.418-4.48,6.084-7.938,8c-3.459,1.916-7.396,2.875-11.813,2.875c-5.25,0-9.938-1.332-14.063-4
		c-4.125-2.666-7.334-6.438-9.625-11.313c-2.293-4.875-3.438-10.479-3.438-16.813c0-6.332,1.145-11.875,3.438-16.625
		c2.291-4.75,5.479-8.416,9.563-11c4.082-2.582,8.791-3.875,14.125-3.875c4.416,0,8.332,0.918,11.75,2.75
		c3.416,1.834,6.041,4.418,7.875,7.75V22.668c0-2.082,0.688-3.77,2.063-5.063c1.375-1.291,3.229-1.938,5.563-1.938
		C952.886,15.668,954.804,16.336,956.304,17.668z M938.991,88.168c2.707-3.416,4.063-8.291,4.063-14.625
		c0-6.332-1.355-11.188-4.063-14.563c-2.709-3.375-6.521-5.063-11.438-5.063c-5,0-8.875,1.668-11.625,5
		c-2.75,3.334-4.125,8.125-4.125,14.375c0,6.334,1.375,11.25,4.125,14.75s6.582,5.25,11.5,5.25
		C932.429,93.293,936.282,91.586,938.991,88.168z"/>
	<path fill="#2A2422" d="M1026.491,89.293c0.875,1.084,1.313,2.543,1.313,4.375c0,2.584-1.543,4.75-4.625,6.5
		c-2.834,1.584-6.043,2.855-9.625,3.813c-3.584,0.957-7,1.438-10.25,1.438c-9.834,0-17.625-2.832-23.375-8.5
		c-5.75-5.666-8.625-13.416-8.625-23.25c0-6.25,1.25-11.791,3.75-16.625c2.5-4.832,6.02-8.582,10.563-11.25
		c4.541-2.666,9.688-4,15.438-4c5.5,0,10.291,1.209,14.375,3.625c4.082,2.418,7.25,5.834,9.5,10.25
		c2.25,4.418,3.375,9.625,3.375,15.625c0,3.584-1.584,5.375-4.75,5.375h-36.875c0.5,5.75,2.125,9.98,4.875,12.688
		c2.75,2.709,6.75,4.063,12,4.063c2.666,0,5.02-0.332,7.063-1c2.041-0.666,4.354-1.582,6.938-2.75c2.5-1.332,4.332-2,5.5-2
		C1024.47,87.668,1025.616,88.211,1026.491,89.293z M991.241,56.793c-2.543,2.668-4.063,6.5-4.563,11.5h28.25
		c-0.168-5.082-1.418-8.938-3.75-11.563c-2.334-2.625-5.584-3.938-9.75-3.938C997.179,52.793,993.782,54.127,991.241,56.793z"/>
	<path fill="#2A2422" d="M1041.803,102.48c-1.75-1.791-2.625-4.02-2.625-6.688c0-2.666,0.875-4.895,2.625-6.688
		c1.75-1.791,3.957-2.688,6.625-2.688c2.666,0,4.875,0.896,6.625,2.688c1.75,1.793,2.625,4.021,2.625,6.688
		c0,2.668-0.875,4.896-2.625,6.688c-1.75,1.793-3.959,2.688-6.625,2.688C1045.76,105.168,1043.553,104.273,1041.803,102.48z"/>
	<path fill="#2A2422" d="M1106.301,99.168c0,2-0.813,3.521-2.438,4.563s-3.938,1.479-6.938,1.313l-3.375-0.25c-14-1-21-8.5-21-22.5
		v-27.25h-6.25c-2.25,0-3.98-0.5-5.188-1.5s-1.813-2.457-1.813-4.375c0-1.916,0.605-3.375,1.813-4.375s2.938-1.5,5.188-1.5h6.25
		v-11.5c0-2.25,0.707-4.041,2.125-5.375c1.416-1.332,3.332-2,5.75-2c2.332,0,4.207,0.668,5.625,2
		c1.416,1.334,2.125,3.125,2.125,5.375v11.5h10.625c2.25,0,3.979,0.5,5.188,1.5c1.207,1,1.813,2.459,1.813,4.375
		c0,1.918-0.605,3.375-1.813,4.375c-1.209,1-2.938,1.5-5.188,1.5h-10.625v28.375c0,6.168,2.832,9.459,8.5,9.875l3.375,0.25
		C1104.217,93.793,1106.301,95.668,1106.301,99.168z"/>
	<path fill="#2A2422" d="M1166.237,89.293c0.875,1.084,1.313,2.543,1.313,4.375c0,2.584-1.543,4.75-4.625,6.5
		c-2.834,1.584-6.043,2.855-9.625,3.813c-3.584,0.957-7,1.438-10.25,1.438c-9.834,0-17.625-2.832-23.375-8.5
		c-5.75-5.666-8.625-13.416-8.625-23.25c0-6.25,1.25-11.791,3.75-16.625c2.5-4.832,6.02-8.582,10.563-11.25
		c4.541-2.666,9.688-4,15.438-4c5.5,0,10.291,1.209,14.375,3.625c4.082,2.418,7.25,5.834,9.5,10.25
		c2.25,4.418,3.375,9.625,3.375,15.625c0,3.584-1.584,5.375-4.75,5.375h-36.875c0.5,5.75,2.125,9.98,4.875,12.688
		c2.75,2.709,6.75,4.063,12,4.063c2.666,0,5.02-0.332,7.063-1c2.041-0.666,4.354-1.582,6.938-2.75c2.5-1.332,4.332-2,5.5-2
		C1164.216,87.668,1165.362,88.211,1166.237,89.293z M1130.987,56.793c-2.543,2.668-4.063,6.5-4.563,11.5h28.25
		c-0.168-5.082-1.418-8.938-3.75-11.563c-2.334-2.625-5.584-3.938-9.75-3.938C1136.925,52.793,1133.528,54.127,1130.987,56.793z"/>
	<path fill="#2A2422" d="M1191.861,101.543c-4.625-2.582-8.188-6.25-10.688-11s-3.75-10.291-3.75-16.625
		c0-6.332,1.313-11.938,3.938-16.813s6.313-8.645,11.063-11.313c4.75-2.666,10.207-4,16.375-4c3.25,0,6.52,0.459,9.813,1.375
		c3.291,0.918,6.188,2.168,8.688,3.75c2.666,1.75,4,3.959,4,6.625c0,1.834-0.438,3.313-1.313,4.438s-2.021,1.688-3.438,1.688
		c-0.918,0-1.875-0.207-2.875-0.625c-1-0.416-2-0.916-3-1.5c-1.834-1.082-3.584-1.938-5.25-2.563
		c-1.668-0.625-3.584-0.938-5.75-0.938c-5.168,0-9.146,1.688-11.938,5.063c-2.793,3.375-4.188,8.23-4.188,14.563
		c0,6.25,1.395,11.063,4.188,14.438c2.791,3.375,6.77,5.063,11.938,5.063c2.082,0,3.938-0.313,5.563-0.938s3.438-1.479,5.438-2.563
		c1.25-0.75,2.332-1.313,3.25-1.688c0.916-0.375,1.832-0.563,2.75-0.563c1.332,0,2.457,0.584,3.375,1.75
		c0.916,1.168,1.375,2.625,1.375,4.375c0,1.418-0.313,2.646-0.938,3.688c-0.625,1.043-1.646,1.98-3.063,2.813
		c-2.584,1.668-5.584,2.98-9,3.938c-3.418,0.957-6.918,1.438-10.5,1.438C1201.84,105.418,1196.486,104.127,1191.861,101.543z"/>
	<path fill="#2A2422" d="M1299.047,66.918v30.75c0,2.334-0.688,4.168-2.063,5.5s-3.271,2-5.688,2c-2.418,0-4.334-0.668-5.75-2
		c-1.418-1.332-2.125-3.166-2.125-5.5v-30.75c0-4.416-0.896-7.645-2.688-9.688c-1.793-2.041-4.605-3.063-8.438-3.063
		c-4.5,0-8.105,1.418-10.813,4.25c-2.709,2.834-4.063,6.625-4.063,11.375v27.875c0,2.334-0.709,4.168-2.125,5.5
		c-1.418,1.332-3.334,2-5.75,2c-2.418,0-4.313-0.668-5.688-2s-2.063-3.166-2.063-5.5v-74.75c0-2.166,0.729-3.916,2.188-5.25
		c1.457-1.332,3.354-2,5.688-2c2.332,0,4.207,0.625,5.625,1.875c1.416,1.25,2.125,2.959,2.125,5.125v29.125
		c2.082-3.25,4.854-5.729,8.313-7.438c3.457-1.707,7.395-2.563,11.813-2.563C1291.879,41.793,1299.047,50.168,1299.047,66.918z"/>
</g>
<g>
	<path fill="#2A2422" d="M397.808,134.327v51.598h-7.68v-3.779H363.49v3.9h-7.38v-51.719H397.808z M363.49,141.526v12.9h26.639
		v-12.9H363.49z M390.128,174.946v-13.439H363.49v13.439H390.128z"/>
	<path fill="#2A2422" d="M457.809,134.327v51.598h-7.68v-3.779H423.49v3.9h-7.38v-51.719H457.809z M423.49,141.526v12.9h26.639
		v-12.9H423.49z M450.129,174.946v-13.439H423.49v13.439H450.129z"/>
	<path fill="#2A2422" d="M495.82,179.445c-3.061-1.76-5.41-4.28-7.051-7.56s-2.459-7.119-2.459-11.521
		c0-4.399,0.818-8.229,2.459-11.489s3.99-5.77,7.051-7.531c3.059-1.759,6.629-2.639,10.709-2.639c2.641,0,5.121,0.389,7.441,1.17
		c2.318,0.779,4.379,1.91,6.18,3.39c0.52,0.399,0.879,0.82,1.08,1.26c0.199,0.44,0.299,0.98,0.299,1.62
		c0,0.881-0.24,1.62-0.719,2.22c-0.48,0.601-1.061,0.9-1.74,0.9c-0.801,0-1.621-0.28-2.461-0.841
		c-1.721-1.279-3.32-2.169-4.799-2.67c-1.48-0.499-3.121-0.75-4.92-0.75c-4.162,0-7.311,1.301-9.451,3.9
		c-2.141,2.601-3.209,6.42-3.209,11.46c0,5.081,1.068,8.921,3.209,11.521s5.289,3.9,9.451,3.9c1.719,0,3.309-0.26,4.77-0.781
		c1.459-0.52,3.109-1.398,4.949-2.64c0.4-0.239,0.801-0.439,1.201-0.6c0.398-0.159,0.818-0.24,1.26-0.24c0.68,0,1.26,0.3,1.74,0.899
		c0.479,0.601,0.719,1.342,0.719,2.221c0,0.6-0.1,1.131-0.299,1.59c-0.201,0.461-0.561,0.891-1.08,1.29
		c-1.801,1.48-3.861,2.61-6.18,3.39c-2.32,0.781-4.801,1.17-7.441,1.17C502.449,182.085,498.879,181.206,495.82,179.445z"/>
	<path fill="#2A2422" d="M532.539,180.165c-2.26-1.238-4.01-3.02-5.25-5.34c-1.24-2.319-1.859-5.02-1.859-8.1s0.619-5.77,1.859-8.07
		c1.24-2.299,2.99-4.069,5.25-5.311c2.26-1.238,4.891-1.859,7.891-1.859s5.631,0.621,7.891,1.859
		c2.26,1.241,3.998,3.012,5.219,5.311c1.221,2.301,1.83,4.99,1.83,8.07s-0.609,5.78-1.83,8.1c-1.221,2.32-2.959,4.102-5.219,5.34
		c-2.26,1.24-4.891,1.861-7.891,1.861S534.799,181.405,532.539,180.165z M545.949,173.806c1.281-1.6,1.92-3.961,1.92-7.08
		c0-3.08-0.639-5.43-1.92-7.051c-1.279-1.619-3.119-2.43-5.52-2.43s-4.25,0.811-5.549,2.43c-1.301,1.621-1.951,3.971-1.951,7.051
		c0,3.119,0.639,5.48,1.92,7.08c1.279,1.6,3.121,2.4,5.52,2.4C542.809,176.206,544.67,175.405,545.949,173.806z"/>
	<path fill="#2A2422" d="M588.789,139.905c0.721,0.641,1.08,1.48,1.08,2.52v35.881c0,1.08-0.34,1.94-1.02,2.58
		c-0.68,0.641-1.58,0.959-2.699,0.959c-1.121,0-2.021-0.318-2.701-0.959c-0.68-0.64-1.02-1.5-1.02-2.58v-1.5
		c-0.881,1.641-2.15,2.92-3.811,3.84s-3.549,1.381-5.67,1.381c-2.52,0-4.77-0.641-6.75-1.921c-1.979-1.28-3.52-3.09-4.619-5.431
		c-1.102-2.34-1.65-5.029-1.65-8.069s0.549-5.7,1.65-7.979c1.1-2.281,2.629-4.04,4.59-5.281c1.959-1.238,4.219-1.859,6.779-1.859
		c2.121,0,4,0.441,5.641,1.32c1.641,0.88,2.9,2.121,3.779,3.72v-14.22c0-1,0.33-1.81,0.99-2.43s1.551-0.931,2.67-0.931
		S588.07,139.267,588.789,139.905z M580.48,173.745c1.299-1.639,1.949-3.979,1.949-7.02c0-3.039-0.65-5.37-1.949-6.99
		c-1.301-1.62-3.131-2.43-5.49-2.43c-2.4,0-4.26,0.801-5.58,2.4s-1.98,3.899-1.98,6.899c0,3.04,0.66,5.399,1.98,7.08
		c1.32,1.68,3.158,2.521,5.52,2.521C577.33,176.206,579.18,175.386,580.48,173.745z"/>
	<path fill="#2A2422" d="M622.479,174.286c0.422,0.52,0.631,1.22,0.631,2.1c0,1.24-0.74,2.279-2.221,3.119
		c-1.359,0.761-2.9,1.371-4.619,1.83c-1.721,0.459-3.359,0.691-4.92,0.691c-4.721,0-8.461-1.36-11.221-4.081
		c-2.76-2.72-4.139-6.439-4.139-11.159c0-3,0.6-5.66,1.799-7.98c1.201-2.32,2.891-4.119,5.07-5.4c2.18-1.279,4.65-1.92,7.41-1.92
		c2.641,0,4.939,0.58,6.9,1.74c1.959,1.16,3.48,2.801,4.559,4.92c1.08,2.121,1.621,4.62,1.621,7.5c0,1.721-0.76,2.58-2.279,2.58
		h-17.701c0.24,2.76,1.02,4.791,2.34,6.09c1.32,1.301,3.24,1.95,5.76,1.95c1.281,0,2.41-0.159,3.391-0.479s2.09-0.76,3.33-1.32
		c1.199-0.64,2.08-0.961,2.641-0.961C621.51,173.505,622.059,173.767,622.479,174.286z M605.559,158.686
		c-1.221,1.28-1.949,3.12-2.189,5.521h13.561c-0.08-2.439-0.682-4.291-1.801-5.551s-2.68-1.89-4.68-1.89
		C608.41,156.766,606.779,157.405,605.559,158.686z"/>
</g>
</svg>
