<?xml version="1.0" encoding="utf-8"?>
<!-- Generator: Adobe Illustrator 15.1.0, SVG Export Plug-In . SVG Version: 6.00 Build 0)  -->
<!DOCTYPE svg PUBLIC "-//W3C//DTD SVG 1.1//EN" "http://www.w3.org/Graphics/SVG/1.1/DTD/svg11.dtd">
<svg version="1.1" id="圖層_1" xmlns="http://www.w3.org/2000/svg" xmlns:xlink="http://www.w3.org/1999/xlink" x="0px" y="0px"
	 width="350px" height="350px" viewBox="0 0 350 350" enable-background="new 0 0 350 350" xml:space="preserve">
<path fill="#2A2422" stroke="#2A2422" stroke-miterlimit="10" d="M216.967,181.751c0.995,5.541-2.563,10.865-7.944,11.89L33.633,227
	c-5.381,1.026-10.549-2.637-11.543-8.177L4.093,118.469c-0.994-5.542,2.563-10.866,7.945-11.894l175.388-30.522
	c5.383-1.028,10.551,2.635,11.544,8.183L216.967,181.751z"/>
<path fill="#2A2422" stroke="#2A2422" stroke-miterlimit="10" d="M315.189,232.042c6.365,1.973,4.41,7.236-0.974,8.263
	l-165.75,33.361c-5.381,1.024-14.905,0.256-21.27-1.715l-93.237-39.938c-6.365-1.966-7.165-4.396-1.781-5.421l175.39-33.36
	c5.385-1.026,14.905-0.259,21.271,1.711L315.189,232.042z"/>
<path fill="#FFFFFF" stroke="#000000" stroke-miterlimit="10" d="M207.212,178.179c0.9,5.021-2.321,9.841-7.195,10.766
	l-158.853,30.22c-4.874,0.927-9.555-2.394-10.455-7.413l-16.3-90.887c-0.9-5.021,2.32-9.846,7.196-10.773l158.851-27.648
	c4.876-0.923,9.557,2.396,10.456,7.413L207.212,178.179z"/>
<g>
	<path fill="#2A2422" d="M92.113,178.996c0.197,1.348-0.084,2.51-0.843,3.488c-0.759,0.979-1.793,1.569-3.1,1.772
		c-0.916,0.143-1.758,0.103-2.526-0.123l-38.716-10.3c-1.461-0.392-2.67-1.115-3.628-2.172c-0.957-1.055-1.549-2.358-1.776-3.908
		c-0.217-1.479-0.022-2.889,0.584-4.221c0.607-1.334,1.557-2.377,2.851-3.13l34.023-21.713c0.799-0.468,1.593-0.763,2.377-0.885
		c1.307-0.203,2.464,0.047,3.47,0.751c1.006,0.705,1.607,1.73,1.805,3.076c0.257,1.751-0.379,3.123-1.904,4.117l-32.421,20.326
		l36.803,9.564C90.855,176.128,91.856,177.246,92.113,178.996z"/>
	<path fill="#2A2422" d="M106.781,193.551c-0.761,0.737-1.666,1.188-2.71,1.35c-1.309,0.204-2.535-0.07-3.68-0.821
		c-1.146-0.751-1.824-1.834-2.031-3.248c-0.089-0.605-0.08-1.227,0.027-1.862l11.986-76.954c0.205-1.339,0.687-2.378,1.448-3.117
		c0.76-0.737,1.664-1.188,2.71-1.352c1.307-0.203,2.533,0.071,3.68,0.822c1.146,0.752,1.824,1.834,2.031,3.248
		c0.088,0.605,0.079,1.227-0.028,1.863l-11.986,76.952C108.025,191.772,107.541,192.812,106.781,193.551z"/>
	<path fill="#2A2422" d="M177.124,142.539c0.962,1.089,1.551,2.376,1.769,3.854c0.227,1.55,0.034,2.976-0.578,4.274
		c-0.61,1.3-1.558,2.359-2.842,3.179l-34.039,21.612c-0.67,0.449-1.462,0.743-2.376,0.885c-1.309,0.204-2.464-0.045-3.47-0.751
		c-1.005-0.703-1.607-1.729-1.805-3.076c-0.256-1.75,0.378-3.121,1.904-4.117l32.421-20.329l-36.803-9.562
		c-1.743-0.486-2.743-1.604-2.999-3.355c-0.197-1.346,0.083-2.508,0.842-3.488c0.76-0.978,1.792-1.569,3.1-1.772
		c0.784-0.122,1.625-0.081,2.525,0.123l38.731,10.4C174.956,140.741,176.163,141.448,177.124,142.539z"/>
</g>
<path fill="#FFFFFF" stroke="#000000" stroke-miterlimit="10" d="M272.467,218.071c4.004,1.062-0.324,4.693-5.132,5.61
	l-148.99,29.388c-4.806,0.91-11.949,0.793-15.952-0.277l-52.805-23.063c-4.006-1.061-3.356-2.669,1.45-3.581l156.63-29.786
	c4.81-0.916,11.951-0.793,15.955,0.268L272.467,218.071z"/>
<g>
	<path fill="#6A3906" d="M343.454,249.714c-3.851,4.535-10.542,4.989-14.944,1.029l-82.413-74.26
		c-4.402-3.965-4.849-10.858-0.997-15.388l0,0c3.852-4.537,10.541-4.993,14.943-1.03l82.413,74.259
		C346.858,238.289,347.305,245.179,343.454,249.714L343.454,249.714z"/>
	<path fill="#CA411B" d="M243.076,206.316c-5.01,5.897-13.71,6.496-19.435,1.335l-20.495-18.465
		c-5.725-5.162-6.307-14.122-1.297-20.017l46.784-55.073c5.009-5.901,13.709-6.5,19.435-1.336l20.495,18.462
		c5.725,5.157,6.306,14.12,1.297,20.02L243.076,206.316z"/>
</g>
</svg>
